<svg width="386" height="176" viewBox="0 0 386 176" fill="none" xmlns="http://www.w3.org/2000/svg">
<path d="M0 55.4617C0 49.5008 3.3154 44.5301 7.63419 44.0159L376.924 0.043687C381.805 -0.537444 386 4.75333 386 11.4894V120.538C386 126.499 382.685 131.47 378.366 131.984L9.07577 175.956C4.19528 176.537 0 171.247 0 164.51V55.4617Z" fill="#101010"/>
<path d="M67.9785 126.524L61.9288 127.252L61.9521 135.602L19.6039 140.694L19.5806 132.344L13.5308 133.071L13.3908 82.9684L19.4406 82.241L19.4172 73.8904L67.8152 68.071L67.8618 84.772L31.5634 89.1366L31.6567 122.538L49.806 120.356L49.7826 112.006L37.6831 113.46L37.6365 96.7596L67.8852 93.1224L67.9785 126.524Z" fill="white"/>
<path d="M128.511 127.599L110.362 129.781L110.315 113.08L92.166 115.263L92.2126 131.964L74.0634 134.146L73.9 75.6926L79.9498 74.9651L79.9265 66.6147L122.275 61.5227L122.298 69.8731L128.348 69.1457L128.511 127.599ZM110.269 96.3794L110.225 80.764L92.0749 82.6959L92.1193 98.5617L110.269 96.3794Z" fill="white"/>
<path d="M189.02 120.323L170.871 122.506L170.801 97.4541L164.751 98.1815L164.775 106.532L158.725 107.259L158.702 98.909L152.652 99.6364L152.722 124.688L134.573 126.87L134.386 60.0663L152.535 57.884L152.559 66.2345L158.608 65.5071L158.632 73.8575L164.681 73.1301L164.658 64.7797L170.708 64.0522L170.684 55.7017L188.834 53.5194L189.02 120.323Z" fill="white"/>
<path d="M249.53 113.047L195.082 119.594L194.895 52.7906L249.343 46.2436L249.39 62.9446L213.091 67.3092L213.114 75.6597L249.413 71.2951L249.46 87.996L213.161 92.3606L213.184 100.711L249.483 96.3465L249.53 113.047Z" fill="white"/>
<path d="M309.945 72.3698L297.846 73.8246L297.799 57.1237L291.75 57.8511L291.843 91.253L297.893 90.5256L297.939 107.226L267.691 110.864L267.644 94.1628L273.694 93.4354L273.6 60.0334L267.551 60.7609L267.597 77.4618L255.498 78.9166L255.404 45.5148L309.852 38.9679L309.945 72.3698Z" fill="white"/>
<path d="M370.361 31.6921L370.408 48.3931L364.358 49.1205L364.382 57.4709L358.332 58.1983L358.355 66.5489L352.305 67.2763L352.399 100.678L334.25 102.861L334.156 69.4586L328.106 70.1861L328.083 61.8355L322.033 62.5631L322.01 54.2125L315.96 54.9399L315.914 38.239L334.063 36.0567L334.086 44.4072L340.136 43.6797L340.159 52.0303L346.209 51.3028L346.186 42.9523L352.235 42.2249L352.212 33.8744L370.361 31.6921Z" fill="white"/>
</svg>
